<svg width="309" height="124" viewBox="0 0 309 124" fill="none" xmlns="http://www.w3.org/2000/svg">
<path d="M301.643 0C297.876 0 294.957 3.08016 294.957 6.73288C294.957 10.3856 297.856 13.4263 301.603 13.4263C305.37 13.4263 308.309 10.3461 308.309 6.69338C308.309 3.02092 305.39 0 301.643 0ZM301.603 12.2417C298.467 12.2417 296.081 9.75388 296.081 6.73296C296.081 3.71204 298.487 1.18477 301.643 1.18477C304.778 1.18477 307.184 3.67255 307.184 6.69346C307.184 9.71438 304.759 12.2417 301.603 12.2417ZM304.483 5.46928C304.483 4.00819 303.516 3.17891 301.781 3.17891H299.099V9.85254H300.223V7.83857H302.076L303.319 9.85254H304.621L303.082 7.62141C303.99 7.26602 304.483 6.51572 304.483 5.46928ZM300.223 6.89087V4.12661H301.781C302.806 4.12661 303.418 4.6005 303.418 5.48895C303.418 6.37748 302.806 6.89079 301.781 6.89079H300.223V6.89087Z" fill="#2D2D2D"/>
<path fill-rule="evenodd" clip-rule="evenodd" d="M123.199 86.9539C122.938 86.9895 122.673 87.026 122.403 87.0636C117.184 87.7941 112.75 88.1607 109.102 88.1607C103.416 88.1607 96.7714 86.6151 89.1623 83.5456C86.0636 82.2956 83.134 80.7511 80.3734 78.9124C76.3612 76.2402 72.7057 72.9466 69.4064 69.0323C68.5835 68.056 67.822 67.0419 67.1218 65.9901C66.7986 65.4584 66.4552 64.8498 66.1016 64.1589C63.9884 60.2799 63.6948 55.6644 65.2993 51.5483C66.9039 47.4322 70.2426 44.2359 74.4216 42.8154C74.8525 42.6542 75.2928 42.5154 75.7382 42.3885C95.3988 36.751 127.246 27.674 127.246 27.674L126.966 26.8396C125.111 21.3273 122.283 16.658 118.486 12.8284C114.614 8.92225 109.929 6.96909 104.431 6.96909C98.7943 6.96909 93.9823 8.53658 89.9892 11.6524C86.0214 14.7485 83.0548 18.9069 81.1001 24.1352C80.6978 25.2114 80.3373 26.3007 80.0186 27.4032C79.1623 30.3438 76.7609 32.5752 73.768 33.2113C68.0527 34.441 59.6194 36.2334 59.6194 36.2334C58.283 36.5174 56.9603 36.8234 55.6512 37.1515C46.9525 39.3315 38.8577 42.4835 31.3664 46.6059C22.4974 51.4866 18.1089 58.0158 18.1089 66.1306C18.1089 70.3101 19.6019 73.6519 22.5666 76.1657C23.0515 76.5769 23.552 76.9542 24.0681 77.2975C24.415 77.5283 24.769 77.7437 25.13 77.9438C26.0813 78.4711 27.0816 78.8917 28.1308 79.2052C33.5034 80.9337 43.9133 81.7933 57.6016 71.0814C58.5793 72.1572 59.4514 73.1068 60.2293 73.9449C56.6494 77.5796 52.104 81.1833 46.5824 83.6871C40.3776 86.5005 33.7133 87.9057 26.5903 87.9057C18.6957 87.9057 12.2587 86.1572 7.29008 82.6199C2.42942 79.1594 0 74.4278 0 68.426C0 62.2444 1.98937 56.9771 5.97822 52.628C10.0355 48.2045 15.1091 44.6603 21.195 41.9894C27.3547 39.2861 34.4993 36.9362 42.6278 34.9368C50.8038 32.9258 56.5893 31.5238 59.9842 30.7307L60.6323 30.5793V26.5975C60.6323 19.8994 59.2007 15.2223 56.4772 12.5254C53.7561 9.83078 49.0438 8.41438 42.3004 8.41438C33.7541 8.41438 26.1912 10.4729 19.6082 14.5775C15.8251 16.9364 12.5448 19.9134 9.76948 23.5104C8.74331 23.5728 7.80879 23.5488 6.95909 23.4589L8.68956 5.81189C10.4612 6.92622 11.991 7.45796 13.2579 7.45796C14.5023 7.45796 16.5512 6.97354 19.395 5.96536C25.0166 3.99549 29.9633 2.55934 34.2358 1.65879C38.4894 0.762275 43.4989 0.316528 49.2636 0.316528C54.9458 0.316528 59.5841 0.812059 63.1772 1.81596C66.6756 2.79336 69.5141 4.35994 71.6837 6.53199C73.1276 7.97752 74.2974 9.71369 75.198 11.7381C77.6299 9.54862 80.3335 7.63381 83.3088 5.99367C90.1781 2.20707 97.7573 0.316611 106.045 0.316611C115.429 0.316611 123.802 2.95456 131.159 8.23598C138.28 13.3475 143.066 20.2091 145.52 28.8179L79.1116 47.2437L79.2317 47.9861C80.2142 54.0611 82.4393 59.63 85.9067 64.6925C89.3776 69.7602 93.7743 73.7851 99.0964 76.7677C104.432 79.7581 110.145 81.2531 116.235 81.2531C117.941 81.2531 119.737 81.0398 121.623 80.611C123.537 80.1758 125.543 79.5186 127.642 78.6372C131.782 76.8979 135.182 74.8641 137.846 72.5451C139.626 70.9892 141.402 68.8912 143.168 66.248C143.694 66.476 144.25 66.6927 144.833 66.888L138.622 86.7169C138.184 86.4945 137.682 86.3275 137.114 86.2204C136.519 86.1027 135.25 86.0353 133.304 86.0353C131.086 86.0353 127.718 86.3398 123.199 86.9538L123.199 86.9539Z" fill="#2D2D2D"/>
<path fill-rule="evenodd" clip-rule="evenodd" d="M203.818 16.5685C200.387 14.4693 196.976 13.4305 193.595 13.4305C185.588 13.4305 179.981 16.7607 176.749 23.3808C173.617 29.7965 172.036 38.065 172.036 48.1921V62.1349C172.036 68.0189 172.209 72.3604 172.551 75.1596C172.913 78.1135 173.902 80.5505 175.498 82.4795C176.995 84.2896 179.306 85.5494 182.458 86.2054H145.805C150.121 85.4818 152.862 83.4045 154.088 80.0657C155.33 76.6817 155.965 71.8679 155.965 65.6206V24.8972C155.965 18.5929 155.33 13.7507 154.088 10.3672C152.835 6.95383 150 4.88398 145.52 4.25795L145.52 4.23606L168.204 2.06936C170.49 7.0924 173.477 20.7176 173.477 20.7176C174.966 17.1831 177.217 13.8851 180.224 10.8199C183.245 7.73999 186.626 5.24226 190.367 3.32769C194.052 1.44225 197.446 0.486572 200.558 0.486572C202.954 0.486572 204.899 0.620205 206.391 0.898911C206.666 0.940136 206.94 0.999712 207.215 1.07912C210.469 2.02254 213.146 4.24017 215.586 6.58996C217.943 8.85902 220.079 11.2513 222.302 12.7384C228.738 17.0442 236.395 1.7765 250.679 0.997819C252.183 0.925654 253.748 0.889695 255.374 0.889695C260.945 0.889695 265.493 1.37272 269.016 2.35415C272.424 3.30375 275.191 4.82383 277.305 6.93408C279.417 9.04251 280.925 11.7888 281.849 15.1624C282.805 18.6523 283.276 23.1246 283.276 28.5777V60.6964C283.276 65.3718 283.489 69.1739 283.913 72.103C284.356 75.1731 285.525 77.9183 287.417 80.3389C289.007 82.3722 291.287 83.8691 294.275 84.7971H273.423C270.081 80.3588 268.325 75.5707 268.168 70.4265L268.057 66.7473L266.271 69.9679C263.202 75.5049 258.663 79.6278 252.659 82.3425C246.577 85.0926 240.044 86.4655 233.062 86.4655C225.339 86.4655 219.04 84.7643 214.178 81.3132C209.448 77.9546 207.083 73.3622 207.083 67.5371C207.083 61.5207 209.024 56.3938 212.917 52.1611C216.892 47.8386 221.865 44.3762 227.828 41.7664C233.881 39.1176 240.901 36.8152 248.889 34.8562C256.933 32.8831 262.626 31.5075 265.966 30.7294L266.748 30.5472V26.4919C266.748 19.8541 265.311 15.2235 262.604 12.5507C260.4 10.3742 256.883 9.02951 252.028 8.60697C251.338 8.5469 250.621 8.50543 249.876 8.48296C236.497 8.40512 227.511 21.3378 221.802 24.4138C220.085 25.3387 217.91 25.0986 215.664 24.2783C215.086 24.0669 214.502 23.8169 213.92 23.5383C209.384 21.366 206.158 17.9996 203.818 16.5683L203.818 16.5685ZM266.748 43.7612V35.5061L265.526 35.7652C255.454 37.9 246.169 41.2999 237.672 45.9626C228.874 50.791 224.53 57.257 224.53 65.285C224.53 69.4459 226.023 72.7718 228.982 75.2744C231.895 77.7375 235.371 78.9759 239.413 78.9759C249.595 78.9759 256.694 75.3342 260.767 68.1608C264.748 61.1483 266.748 53.0165 266.748 43.7612Z" fill="#2D2D2D"/>
<path d="M69.145 110.241H63.3867V123.516H69.2776C72.2704 123.516 74.1078 122.15 74.1078 119.875C74.1078 118.092 73.047 116.821 71.2665 116.518C72.7061 116.158 73.5963 115.039 73.5963 113.56C73.5963 111.493 71.8916 110.241 69.145 110.241ZM69.0313 115.74H65.6218V112.251H69.0313C70.4519 112.232 71.3043 112.858 71.3043 113.958C71.3043 115.096 70.4519 115.74 69.0313 115.74ZM69.0313 121.505H65.6218V117.713H69.0313C70.774 117.694 71.8157 118.414 71.8157 119.59C71.8157 120.823 70.774 121.524 69.0313 121.505Z" fill="#2D2D2D"/>
<path d="M94.3562 110.241H92.0832L88.3706 116.708L84.5822 110.241H82.3281L87.272 119.173V123.516H89.4882V119.097L94.3562 110.241Z" fill="#2D2D2D"/>
<path d="M126.218 123.516H128.605L122.809 110.241H120.517L114.664 123.516H116.994L118.263 120.519H124.949L126.218 123.516ZM119.096 118.528L121.597 112.63L124.097 118.528H119.096Z" fill="#2D2D2D"/>
<path d="M137.656 110.241V123.516H139.891V113.996L146.957 123.516H149.154V110.241H146.957V119.78L139.853 110.241H137.656Z" fill="#2D2D2D"/>
<path d="M169.023 120.69C168.076 121.259 166.959 121.6 165.974 121.6C163.265 121.6 161.124 119.533 161.124 116.878C161.124 114.242 163.246 112.175 165.955 112.175C167.337 112.175 168.758 112.744 169.781 113.693L171.05 112.043C169.743 110.905 167.849 110.184 165.955 110.184C161.939 110.184 158.852 113.086 158.852 116.878C158.852 120.671 161.901 123.611 165.822 123.611C167.641 123.611 169.629 122.909 170.974 121.885V116.992H169.023V120.69H169.023Z" fill="#2D2D2D"/>
<path d="M181.434 110.241V123.516H191.132V121.505H183.669V117.845H190.147V115.854H183.669V112.251H190.904V110.241H181.434Z" fill="#2D2D2D"/>
<path d="M201.148 110.241V123.516H209.123V121.486H203.384V110.241H201.148Z" fill="#2D2D2D"/>
<path d="M228.504 123.516H230.89L225.094 110.241H222.802L216.949 123.516H219.279L220.548 120.519H227.235L228.504 123.516ZM221.382 118.528L223.882 112.63L226.382 118.528H221.382Z" fill="#2D2D2D"/>
</svg>
